<svg id="visual" viewBox="0 0 900 600" width="900" height="600" xmlns="http://www.w3.org/2000/svg" xmlns:xlink="http://www.w3.org/1999/xlink" version="1.1"><rect x="0" y="0" width="900" height="600" fill="#e8e8e8"></rect><defs><linearGradient id="grad1_0" x1="33.3%" y1="0%" x2="100%" y2="100%"><stop offset="20%" stop-color="#0e8168" stop-opacity="1"></stop><stop offset="80%" stop-color="#0e8168" stop-opacity="1"></stop></linearGradient></defs><defs><linearGradient id="grad1_1" x1="33.3%" y1="0%" x2="100%" y2="100%"><stop offset="20%" stop-color="#0e8168" stop-opacity="1"></stop><stop offset="80%" stop-color="#88b4a6" stop-opacity="1"></stop></linearGradient></defs><defs><linearGradient id="grad1_2" x1="33.3%" y1="0%" x2="100%" y2="100%"><stop offset="20%" stop-color="#e8e8e8" stop-opacity="1"></stop><stop offset="80%" stop-color="#88b4a6" stop-opacity="1"></stop></linearGradient></defs><defs><linearGradient id="grad2_0" x1="0%" y1="0%" x2="66.7%" y2="100%"><stop offset="20%" stop-color="#0e8168" stop-opacity="1"></stop><stop offset="80%" stop-color="#0e8168" stop-opacity="1"></stop></linearGradient></defs><defs><linearGradient id="grad2_1" x1="0%" y1="0%" x2="66.7%" y2="100%"><stop offset="20%" stop-color="#88b4a6" stop-opacity="1"></stop><stop offset="80%" stop-color="#0e8168" stop-opacity="1"></stop></linearGradient></defs><defs><linearGradient id="grad2_2" x1="0%" y1="0%" x2="66.7%" y2="100%"><stop offset="20%" stop-color="#88b4a6" stop-opacity="1"></stop><stop offset="80%" stop-color="#e8e8e8" stop-opacity="1"></stop></linearGradient></defs><g transform="translate(900, 0)"><path d="M0 378.6C-39.4 370.3 -78.8 362 -112.2 345.2C-145.6 328.5 -173 303.3 -205.7 283.2C-238.4 263 -276.5 247.8 -304.2 221C-331.9 194.2 -349.4 155.8 -360.1 117C-370.7 78.2 -374.7 39.1 -378.6 0L0 0Z" fill="#b8cec6"></path><path d="M0 252.4C-26.3 246.9 -52.5 241.3 -74.8 230.2C-97.1 219 -115.3 202.2 -137.1 188.8C-159 175.3 -184.3 165.2 -202.8 147.3C-221.3 129.5 -232.9 103.8 -240 78C-247.2 52.1 -249.8 26.1 -252.4 0L0 0Z" fill="#569b86"></path><path d="M0 126.2C-13.1 123.4 -26.3 120.7 -37.4 115.1C-48.5 109.5 -57.7 101.1 -68.6 94.4C-79.5 87.7 -92.2 82.6 -101.4 73.7C-110.6 64.7 -116.5 51.9 -120 39C-123.6 26.1 -124.9 13 -126.2 0L0 0Z" fill="#0e8168"></path></g><g transform="translate(0, 600)"><path d="M0 -378.6C36.9 -361 73.8 -343.3 105.4 -324.3C136.9 -305.3 163.1 -284.9 194.6 -267.8C226 -250.7 262.7 -236.9 292.9 -212.8C323.1 -188.7 346.8 -154.2 360.1 -117C373.3 -79.8 375.9 -39.9 378.6 0L0 0Z" fill="#b8cec6"></path><path d="M0 -252.4C24.6 -240.6 49.2 -228.9 70.2 -216.2C91.3 -203.5 108.8 -189.9 129.7 -178.5C150.7 -167.1 175.1 -157.9 195.2 -141.9C215.4 -125.8 231.2 -102.8 240 -78C248.8 -53.2 250.6 -26.6 252.4 0L0 0Z" fill="#569b86"></path><path d="M0 -126.2C12.3 -120.3 24.6 -114.4 35.1 -108.1C45.6 -101.8 54.4 -95 64.9 -89.3C75.3 -83.6 87.6 -79 97.6 -70.9C107.7 -62.9 115.6 -51.4 120 -39C124.4 -26.6 125.3 -13.3 126.2 0L0 0Z" fill="#0e8168"></path></g></svg>